<svg width="22" height="22" viewBox="0 0 22 22" fill="none" xmlns="http://www.w3.org/2000/svg">
<path d="M16.6415 3.806C16.3851 3.806 16.1344 3.88342 15.9211 4.02846C15.7079 4.1735 15.5417 4.37966 15.4436 4.62086C15.3454 4.86206 15.3198 5.12746 15.3698 5.38352C15.4198 5.63957 15.5433 5.87478 15.7247 6.05938C15.906 6.24399 16.137 6.3697 16.3886 6.42064C16.6401 6.47157 16.9008 6.44543 17.1377 6.34552C17.3747 6.24561 17.5772 6.07643 17.7196 5.85935C17.8621 5.64228 17.9382 5.38707 17.9382 5.126C17.9382 4.77591 17.8015 4.44017 17.5584 4.19262C17.3152 3.94507 16.9854 3.806 16.6415 3.806ZM21.612 6.468C21.591 5.55533 21.423 4.65234 21.1149 3.795C20.8402 3.06145 20.4126 2.39721 19.8615 1.848C19.3264 1.28417 18.6724 0.851594 17.949 0.583C17.109 0.259777 16.221 0.084931 15.3233 0.0659999C14.1779 -6.14673e-08 13.8105 0 10.8715 0C7.93243 0 7.56505 -6.14673e-08 6.41969 0.0659999C5.52193 0.084931 4.63394 0.259777 3.794 0.583C3.07185 0.854313 2.41841 1.28652 1.88146 1.848C1.3276 2.3927 0.902684 3.05848 0.638844 3.795C0.321341 4.65008 0.14959 5.55407 0.130994 6.468C0.066162 7.634 0.0661621 8.008 0.0661621 11C0.0661621 13.992 0.066162 14.366 0.130994 15.532C0.14959 16.4459 0.321341 17.3499 0.638844 18.205C0.902684 18.9415 1.3276 19.6073 1.88146 20.152C2.41841 20.7135 3.07185 21.1457 3.794 21.417C4.63394 21.7402 5.52193 21.9151 6.41969 21.934C7.56505 22 7.93243 22 10.8715 22C13.8105 22 14.1779 22 15.3233 21.934C16.221 21.9151 17.109 21.7402 17.949 21.417C18.6724 21.1484 19.3264 20.7158 19.8615 20.152C20.415 19.6048 20.843 18.94 21.1149 18.205C21.423 17.3477 21.591 16.4447 21.612 15.532C21.612 14.366 21.6768 13.992 21.6768 11C21.6768 8.008 21.6768 7.634 21.612 6.468ZM19.667 15.4C19.6591 16.0982 19.5349 16.7901 19.2996 17.446C19.1271 17.9247 18.85 18.3573 18.4892 18.711C18.1388 19.0746 17.7147 19.3561 17.2466 19.536C16.6023 19.7755 15.9227 19.902 15.2368 19.91C14.1563 19.965 13.7565 19.976 10.9147 19.976C8.0729 19.976 7.67311 19.976 6.59257 19.91C5.88039 19.9236 5.17124 19.8119 4.49634 19.58C4.04877 19.3909 3.64419 19.1101 3.30776 18.755C2.94912 18.4016 2.67548 17.9687 2.50816 17.49C2.24436 16.8247 2.09804 16.1171 2.07595 15.4C2.07595 14.3 2.01112 13.893 2.01112 11C2.01112 8.107 2.01112 7.7 2.07595 6.6C2.08079 5.88616 2.2088 5.17874 2.45414 4.51C2.64436 4.0457 2.93634 3.63182 3.30776 3.3C3.63604 2.92179 4.04175 2.62141 4.49634 2.42C5.15498 2.17805 5.84916 2.05159 6.54935 2.046C7.62988 2.046 8.02968 1.98 10.8715 1.98C13.7133 1.98 14.1131 1.98 15.1936 2.046C15.8795 2.05401 16.5591 2.18047 17.2034 2.42C17.6944 2.60552 18.1351 2.90713 18.4892 3.3C18.8433 3.6379 19.12 4.05101 19.2996 4.51C19.5398 5.17983 19.6641 5.88696 19.667 6.6C19.721 7.7 19.7318 8.107 19.7318 11C19.7318 13.893 19.721 14.3 19.667 15.4ZM10.8715 5.357C9.77561 5.35917 8.70497 5.69198 7.79483 6.31336C6.88469 6.93474 6.1759 7.81682 5.75801 8.84813C5.34012 9.87944 5.23189 11.0137 5.44699 12.1076C5.66209 13.2015 6.19087 14.206 6.96652 14.9941C7.74217 15.7822 8.72988 16.3185 9.80484 16.5354C10.8798 16.7522 11.9938 16.6398 13.006 16.2124C14.0183 15.785 14.8834 15.0617 15.492 14.1339C16.1006 13.2062 16.4254 12.1156 16.4254 11C16.4268 10.2576 16.2841 9.52227 16.0053 8.83625C15.7266 8.15024 15.3174 7.52709 14.8012 7.00266C14.2851 6.47822 13.6722 6.06285 12.9977 5.78042C12.3233 5.498 11.6007 5.3541 10.8715 5.357ZM10.8715 14.663C10.1598 14.663 9.46416 14.4482 8.87244 14.0457C8.28073 13.6432 7.81954 13.0711 7.5472 12.4018C7.27487 11.7324 7.20361 10.9959 7.34245 10.2854C7.48128 9.57483 7.82398 8.92215 8.32719 8.40987C8.8304 7.89759 9.47153 7.54872 10.1695 7.40738C10.8675 7.26605 11.591 7.33859 12.2484 7.61583C12.9059 7.89307 13.4679 8.36257 13.8632 8.96495C14.2586 9.56732 14.4697 10.2755 14.4697 11C14.4697 11.481 14.3766 11.9574 14.1958 12.4018C14.0149 12.8462 13.7499 13.25 13.4158 13.5901C13.0816 13.9303 12.685 14.2001 12.2484 14.3842C11.8119 14.5683 11.344 14.663 10.8715 14.663Z" fill="white"/>
</svg>
