<svg width="21" height="20" viewBox="0 0 21 20" fill="none" xmlns="http://www.w3.org/2000/svg">
<path d="M20.0661 12.1995V19.4054C20.0661 19.5824 19.9171 19.7341 19.7433 19.7341H16.0923C15.9185 19.7341 15.7694 19.5824 15.7694 19.4054V12.7052C15.7694 10.9353 15.1485 9.72168 13.5838 9.72168C12.3917 9.72168 11.6963 10.5308 11.3734 11.3146C11.2492 11.5927 11.2244 11.9972 11.2244 12.3765V19.4054C11.2244 19.5824 11.0753 19.7341 10.9015 19.7341H7.27537C7.10151 19.7341 6.95249 19.5824 6.95249 19.4054C6.95249 17.6103 7.00217 8.93788 6.95249 6.91516C6.95249 6.73817 7.10151 6.58647 7.27537 6.58647H10.9263C11.1002 6.58647 11.2492 6.73817 11.2492 6.91516V8.45748C11.2492 8.48277 11.2244 8.48277 11.2244 8.50805H11.2492V8.45748C11.8204 7.57255 12.8387 6.28306 15.1237 6.28306C17.955 6.28306 20.0661 8.17936 20.0661 12.1995ZM0.594358 19.7594H4.24532C4.41917 19.7594 4.56819 19.6077 4.56819 19.4307V6.91516C4.56819 6.73817 4.41917 6.58647 4.24532 6.58647H0.594358C0.420503 6.58647 0.271484 6.73817 0.271484 6.91516V19.4307C0.296321 19.6077 0.420503 19.7594 0.594358 19.7594Z" fill="white"/>
<path d="M2.30944 4.94305C3.58491 4.94305 4.61889 3.89029 4.61889 2.59164C4.61889 1.293 3.58491 0.240234 2.30944 0.240234C1.03397 0.240234 0 1.293 0 2.59164C0 3.89029 1.03397 4.94305 2.30944 4.94305Z" fill="white"/>
</svg>
