<svg width="22" height="22" viewBox="0 0 22 22" fill="none" xmlns="http://www.w3.org/2000/svg">
<path d="M11.0002 1C9.68693 1 8.38654 1.25866 7.17327 1.76122C5.95999 2.26378 4.85759 3.00039 3.92899 3.92899C3.00037 4.85759 2.26378 5.95999 1.76122 7.17327C1.25866 8.38654 1 9.68693 1 11.0002M11.0002 4.84622C9.36803 4.84622 7.80276 5.49458 6.64866 6.64866C5.49458 7.80276 4.84622 9.36803 4.84622 11.0002M10.2464 20.3386C9.4488 20.8522 8.49951 21.0773 7.55628 20.9765C6.61306 20.8757 5.73272 20.4552 5.06165 19.7848L4.47703 19.2001C4.21773 18.938 4.07228 18.5843 4.07228 18.2155C4.07228 17.8469 4.21773 17.493 4.47703 17.2309L6.93861 14.7847C7.1981 14.5263 7.54937 14.3813 7.91555 14.3813C8.28172 14.3813 8.63299 14.5263 8.89249 14.7847C9.1546 15.044 9.50842 15.1894 9.87712 15.1894C10.2458 15.1894 10.5996 15.044 10.8617 14.7847L14.7849 10.8616C15.0442 10.5994 15.1897 10.2456 15.1897 9.87693C15.1897 9.50823 15.0442 9.15441 14.7849 8.8923C14.5265 8.6328 14.3815 8.28153 14.3815 7.91536C14.3815 7.54918 14.5265 7.19791 14.7849 6.93842L17.1541 4.47684C17.4163 4.21753 17.7701 4.07209 18.1387 4.07209C18.5075 4.07209 18.8614 4.21753 19.1234 4.47684L19.708 5.06146C20.3905 5.72307 20.8254 6.59872 20.9402 7.54227C21.0551 8.48583 20.8428 9.44023 20.3388 10.2462C17.6561 14.229 14.2292 17.656 10.2464 20.3386Z" stroke="white" stroke-width="1.5" stroke-linecap="round" stroke-linejoin="round"/>
</svg>
