<svg width="49" height="42" viewBox="0 0 49 42" fill="none" xmlns="http://www.w3.org/2000/svg">
<path opacity="0.12" d="M19 0.399991C20.4667 6.8 21.2 12.9333 21.2 18.8C21.2 26.2667 19.4667 31.9333 16 35.8C12.6667 39.5333 7.66667 41.4 1 41.4V33.2C4.46667 33.2 6.93333 32.3333 8.4 30.6C9.86667 28.7333 10.6 25.9333 10.6 22.2V17.6H0.600001V0.399991H19ZM46 0.399991C47.6 7.33332 48.4 13.4667 48.4 18.8C48.4 26.2667 46.6667 31.9333 43.2 35.8C39.7333 39.5333 34.6667 41.4 28 41.4V33.2C31.4667 33.2 33.9333 32.3333 35.4 30.6C36.8667 28.7333 37.6 25.9333 37.6 22.2V17.6H27.6V0.399991H46Z" fill="#1A2C3A"/>
</svg>
