<svg width="179" height="178" viewBox="0 0 179 178" fill="none" xmlns="http://www.w3.org/2000/svg">
<path d="M71.565 170.224C71.6422 170.131 71.7195 170.065 71.7971 170.028C71.8688 169.995 71.954 169.987 72.0525 170.004C72.1559 170.022 72.2628 170.079 72.373 170.174C72.4775 170.274 72.6053 170.385 72.7565 170.508C72.9076 170.63 73.0901 170.748 73.3038 170.862C73.5117 170.979 73.7683 171.065 74.0737 171.118C74.3496 171.166 74.5969 171.174 74.8158 171.141C75.0339 171.113 75.2246 171.052 75.3881 170.959C75.5466 170.865 75.675 170.74 75.7731 170.584C75.8704 170.434 75.9363 170.26 75.9706 170.063C76.0144 169.812 75.9819 169.59 75.8732 169.399C75.7596 169.207 75.5973 169.031 75.3864 168.873C75.1755 168.714 74.9304 168.562 74.6512 168.417C74.372 168.272 74.0867 168.118 73.7952 167.956C73.503 167.798 73.2215 167.622 72.9509 167.428C72.6794 167.238 72.4468 167.015 72.253 166.758C72.0585 166.506 71.9193 166.212 71.8354 165.878C71.7467 165.543 71.741 165.154 71.8183 164.71C71.9024 164.228 72.0652 163.789 72.3065 163.395C72.542 163.004 72.8474 162.679 73.2225 162.42C73.5919 162.165 74.0215 161.986 74.5113 161.883C75.0003 161.786 75.5404 161.789 76.1315 161.892C76.4713 161.951 76.8003 162.044 77.1183 162.17C77.4371 162.292 77.7385 162.441 78.0224 162.617C78.3014 162.793 78.5589 162.99 78.7948 163.209C79.0308 163.428 79.2337 163.661 79.4037 163.909L78.6538 164.76C78.5925 164.82 78.5186 164.866 78.4321 164.897C78.3447 164.932 78.2566 164.942 78.168 164.927C78.0448 164.905 77.9208 164.83 77.796 164.702C77.6704 164.578 77.5198 164.438 77.3442 164.281C77.1686 164.123 76.9593 163.97 76.7163 163.821C76.4675 163.676 76.1584 163.571 75.789 163.507C75.2225 163.408 74.7609 163.465 74.4042 163.677C74.0467 163.893 73.8241 164.253 73.7365 164.755C73.6876 165.036 73.7191 165.278 73.831 165.48C73.938 165.681 74.0969 165.861 74.3078 166.02C74.5179 166.183 74.7634 166.333 75.0443 166.468C75.3252 166.603 75.6098 166.747 75.898 166.899C76.1863 167.05 76.4661 167.221 76.7376 167.41C77.0091 167.6 77.2413 167.826 77.4342 168.088C77.627 168.35 77.7661 168.658 77.8514 169.013C77.9309 169.372 77.9282 169.795 77.8432 170.283C77.7753 170.672 77.6328 171.038 77.4157 171.381C77.1937 171.723 76.91 172.011 76.5647 172.245C76.2193 172.479 75.8149 172.645 75.3514 172.741C74.8878 172.838 74.3753 172.838 73.8138 172.74C73.1833 172.63 72.6192 172.43 72.1216 172.14C71.624 171.851 71.2189 171.496 70.9064 171.076L71.565 170.224Z" fill="white"/>
<path d="M60.6076 160.364C60.5032 160.33 60.424 160.259 60.3701 160.151L59.8871 159.082C60.4763 158.703 61.1226 158.478 61.8261 158.406C62.5249 158.332 63.3014 158.437 64.1556 158.72C64.9197 158.974 65.5645 159.332 66.0901 159.797C66.611 160.259 67.0102 160.794 67.2878 161.403C67.5654 162.011 67.7134 162.677 67.7319 163.399C67.7455 164.12 67.6257 164.863 67.3722 165.627C67.1156 166.4 66.7577 167.066 66.2984 167.625C65.8375 168.189 65.3069 168.629 64.7065 168.946C64.1014 169.262 63.4455 169.445 62.7388 169.495C62.0305 169.549 61.2991 169.452 60.5445 169.201C59.7947 168.953 59.1712 168.609 58.6741 168.17C58.1722 167.73 57.7834 167.242 57.5075 166.708L58.4433 166.031C58.5002 165.987 58.5665 165.953 58.6424 165.931C58.7135 165.907 58.8013 165.913 58.9057 165.947C58.9769 165.971 59.0441 166.014 59.1075 166.077C59.1692 166.145 59.2357 166.223 59.307 166.31C59.3767 166.401 59.4591 166.502 59.5541 166.613C59.6492 166.723 59.7655 166.833 59.9032 166.942C60.0394 167.056 60.2056 167.166 60.4018 167.273C60.5917 167.384 60.8219 167.484 61.0924 167.574C61.5527 167.726 62.0026 167.783 62.4421 167.745C62.8753 167.709 63.2815 167.581 63.6606 167.359C64.0382 167.142 64.3777 166.833 64.6791 166.432C64.979 166.037 65.2241 165.552 65.4146 164.977C65.6067 164.398 65.6968 163.857 65.685 163.352C65.6684 162.846 65.5713 162.393 65.3937 161.991C65.216 161.59 64.9649 161.243 64.6403 160.951C64.3142 160.664 63.9328 160.448 63.4962 160.303C63.2352 160.217 62.9956 160.153 62.7773 160.112C62.5543 160.07 62.3448 160.05 62.1487 160.054C61.9479 160.056 61.7535 160.078 61.5654 160.121C61.371 160.167 61.1718 160.235 60.968 160.326C60.9064 160.353 60.8455 160.369 60.7855 160.376C60.7238 160.387 60.6645 160.383 60.6076 160.364Z" fill="white"/>
<path d="M52.3882 159.88C52.05 159.707 51.7346 159.599 51.442 159.556C51.145 159.51 50.8788 159.52 50.6434 159.585C50.4013 159.652 50.1878 159.767 50.0029 159.931C49.818 160.095 49.6629 160.299 49.5376 160.544C49.287 161.034 49.2569 161.493 49.4474 161.922C49.6335 162.348 50.0581 162.731 50.7213 163.071L51.8696 163.659L53.5098 160.454L52.3882 159.88ZM50.3585 152.455L51.9808 153.285C52.2879 153.442 52.4489 153.676 52.4639 153.987L52.9113 158.117C52.9278 158.272 52.9702 158.397 53.0386 158.494C53.1026 158.589 53.2235 158.681 53.4016 158.772L54.1694 159.165L56.1001 155.393L57.896 156.313L52.9547 165.967L50.0105 164.46C49.3562 164.125 48.8307 163.769 48.434 163.391C48.0306 163.016 47.7424 162.63 47.5695 162.233C47.3921 161.833 47.3199 161.425 47.3529 161.01C47.3836 160.599 47.5038 160.188 47.7133 159.779C47.8797 159.454 48.0858 159.172 48.3318 158.933C48.5733 158.691 48.8457 158.499 49.149 158.357C49.4477 158.212 49.7762 158.119 50.1344 158.078C50.4881 158.034 50.8603 158.047 51.251 158.118C51.1694 157.992 51.1036 157.857 51.0535 157.714C51.0012 157.575 50.9668 157.422 50.9505 157.257L50.3585 152.455Z" fill="white"/>
<path d="M36.535 149.025C37.0105 148.388 37.5578 147.876 38.1769 147.489C38.789 147.104 39.4354 146.856 40.1162 146.747C40.7969 146.637 41.4915 146.672 42.1999 146.851C42.9053 147.035 43.5887 147.373 44.2498 147.866C44.907 148.357 45.4238 148.914 45.8003 149.538C46.1738 150.166 46.4068 150.824 46.4995 151.511C46.5881 152.194 46.5367 152.886 46.3454 153.585C46.1511 154.289 45.8162 154.959 45.3407 155.596C44.8652 156.233 44.3194 156.743 43.7033 157.126C43.0842 157.512 42.4343 157.76 41.7535 157.87C41.0688 157.976 40.3737 157.938 39.6683 157.755C38.9598 157.575 38.277 157.241 37.6199 156.75C37.1791 156.421 36.8032 156.06 36.4923 155.665C36.1784 155.275 35.9294 154.865 35.7454 154.434C35.5584 154.008 35.4368 153.564 35.3807 153.104C35.3176 152.646 35.3185 152.185 35.3834 151.721C35.4483 151.258 35.5783 150.8 35.7732 150.347C35.9641 149.89 36.2181 149.449 36.535 149.025ZM38.188 150.258C37.8321 150.735 37.5777 151.21 37.4249 151.682C37.269 152.158 37.2106 152.617 37.2496 153.058C37.2887 153.499 37.4262 153.917 37.6621 154.311C37.894 154.703 38.2224 155.057 38.6471 155.374C39.0719 155.691 39.5069 155.906 39.9521 156.02C40.3934 156.131 40.8329 156.144 41.2707 156.059C41.7045 155.971 42.1276 155.784 42.5399 155.5C42.9493 155.219 43.3319 154.84 43.6877 154.363C44.0436 153.886 44.2995 153.409 44.4553 152.933C44.6082 152.461 44.6651 152.004 44.6261 151.563C44.58 151.123 44.4411 150.707 44.2091 150.316C43.9732 149.922 43.6429 149.566 43.2181 149.249C42.7933 148.932 42.3603 148.718 41.9191 148.607C41.4738 148.493 41.0358 148.478 40.605 148.562C40.1712 148.65 39.7496 148.835 39.3403 149.116C38.9279 149.401 38.5439 149.781 38.188 150.258Z" fill="white"/>
<path d="M31.8495 138.812L33.0427 137.651L37.4731 142.204L29.7009 149.767L28.2939 148.321L34.8728 141.919L31.8495 138.812Z" fill="white"/>
<path d="M25.7936 130.817L27.1297 129.824L30.9203 134.921L22.2176 141.393L21.0137 139.774L28.3803 134.296L25.7936 130.817Z" fill="white"/>
<path d="M13.4798 114.157C14.2136 113.851 14.9384 113.692 15.6541 113.681C16.3699 113.67 17.0417 113.793 17.6694 114.051C18.2971 114.31 18.8631 114.7 19.3675 115.221C19.8718 115.742 20.2826 116.383 20.6001 117.144L22.1901 120.959L12.1799 125.132L10.5899 121.317C10.2725 120.556 10.1085 119.811 10.098 119.085C10.0829 118.36 10.2046 117.683 10.4629 117.055C10.7167 116.43 11.0995 115.866 11.6113 115.366C12.1232 114.866 12.746 114.462 13.4798 114.157ZM14.2762 116.067C13.727 116.296 13.2663 116.575 12.8941 116.903C12.5153 117.229 12.2336 117.593 12.049 117.995C11.8579 118.394 11.7634 118.824 11.7654 119.283C11.7655 119.738 11.8674 120.21 12.0714 120.7L12.8822 122.645L19.9295 119.707L19.1186 117.762C18.9147 117.273 18.6512 116.868 18.328 116.548C18.003 116.223 17.6337 115.987 17.2202 115.839C16.8002 115.689 16.3435 115.633 15.85 115.671C15.35 115.706 14.8254 115.838 14.2762 116.067Z" fill="white"/>
<path d="M10.1768 100.046C10.9532 99.8752 11.702 99.846 12.423 99.9586C13.1381 100.067 13.789 100.303 14.3756 100.665C14.9623 101.028 15.4649 101.508 15.8835 102.107C16.2972 102.707 16.5927 103.41 16.7701 104.216C16.9464 105.017 16.9728 105.776 16.8494 106.495C16.7211 107.214 16.4674 107.864 16.0882 108.444C15.708 109.019 15.2168 109.509 14.6145 109.913C14.0074 110.318 13.3157 110.606 12.5392 110.777C11.7628 110.948 11.0165 110.976 10.3004 110.863C9.57928 110.75 8.92543 110.512 8.3388 110.15C7.75109 109.783 7.25039 109.299 6.83669 108.699C6.41811 108.1 6.12066 107.4 5.94435 106.599C5.82609 106.062 5.77831 105.543 5.80098 105.041C5.81878 104.541 5.89889 104.067 6.04131 103.621C6.17886 103.176 6.37681 102.762 6.63517 102.377C6.88757 101.989 7.18979 101.641 7.54182 101.333C7.89386 101.025 8.2919 100.763 8.73594 100.548C9.17891 100.327 9.6592 100.16 10.1768 100.046ZM10.6203 102.06C10.0392 102.188 9.53634 102.381 9.11173 102.638C8.68225 102.897 8.33807 103.205 8.07922 103.564C7.82037 103.923 7.65118 104.329 7.57165 104.782C7.49105 105.23 7.50773 105.713 7.62168 106.23C7.73564 106.748 7.92376 107.195 8.18605 107.573C8.44726 107.945 8.77126 108.243 9.15804 108.465C9.54375 108.682 9.98575 108.817 10.484 108.871C10.9775 108.927 11.5147 108.89 12.0958 108.762C12.6769 108.634 13.1822 108.441 13.6116 108.183C14.0362 107.926 14.378 107.617 14.6368 107.258C14.8897 106.895 15.0565 106.49 15.1371 106.042C15.2166 105.59 15.1994 105.105 15.0854 104.587C14.9715 104.069 14.7839 103.624 14.5227 103.252C14.2604 102.874 13.9388 102.576 13.558 102.358C13.1723 102.141 12.7327 102.005 12.2393 101.95C11.741 101.896 11.2014 101.932 10.6203 102.06Z" fill="white"/>
<path d="M4.10401 81.4725L15.0082 84.6433L15.0411 86.4655L7.67522 88.9691C7.49643 89.0374 7.27755 89.1013 7.01858 89.161C7.14411 89.1888 7.26213 89.2166 7.37266 89.2446C7.48318 89.2726 7.58625 89.3033 7.68187 89.3366L15.1339 91.5946L15.167 93.4243L4.38461 96.98L4.35408 95.2927C4.35091 95.1178 4.39078 94.972 4.47369 94.8555C4.55151 94.7341 4.66004 94.6521 4.79929 94.6096L11.2524 92.6475C11.4116 92.6046 11.5859 92.564 11.7752 92.5255C11.9595 92.4822 12.1537 92.4387 12.358 92.395C12.1473 92.3588 11.949 92.3199 11.7633 92.2782C11.5774 92.2316 11.404 92.1822 11.243 92.1301L4.71802 90.1178C4.60231 90.0799 4.49593 90.0043 4.39886 89.891C4.30171 89.7728 4.25159 89.6287 4.24852 89.4587L4.2378 88.8663C4.23463 88.6913 4.27455 88.5481 4.35754 88.4366C4.44054 88.325 4.54903 88.2406 4.68301 88.1831L11.131 85.9436C11.4391 85.833 11.7948 85.7316 12.1982 85.6392C11.8021 85.5814 11.4434 85.5154 11.122 85.4412L4.60214 83.7139C4.47662 83.6861 4.36778 83.6131 4.27562 83.4947C4.18338 83.3714 4.13572 83.2247 4.13264 83.0547L4.10401 81.4725Z" fill="white"/>
<path d="M6.5241 68.89L17.2027 70.7827L17.022 71.8018C16.9941 71.9594 16.9459 72.0879 16.8775 72.1875C16.805 72.2813 16.6985 72.3665 16.558 72.4432L8.45066 76.7569C8.78084 76.785 9.08377 76.8235 9.35947 76.8723L15.9173 78.0347L15.607 79.7849L4.92848 77.8922L5.11305 76.8509C5.12788 76.7672 5.14546 76.6967 5.16577 76.6393C5.18204 76.5762 5.20641 76.5247 5.23888 76.4847C5.2673 76.439 5.30759 76.3979 5.35975 76.3614C5.40699 76.3241 5.46988 76.2845 5.5484 76.2425L13.6892 71.9118C13.5142 71.8961 13.3422 71.8783 13.1731 71.8585C13.0039 71.8386 12.848 71.8161 12.7052 71.7908L6.21388 70.6402L6.5241 68.89Z" fill="white"/>
<path d="M15.7435 58.9774L17.291 55.4139L18.7081 56.0293L17.1607 59.5928L15.7435 58.9774Z" fill="white"/>
<path d="M24.0564 37.6775C24.106 37.7878 24.1305 37.886 24.1298 37.972C24.1279 38.051 24.0976 38.131 24.0388 38.2118C23.9771 38.2968 23.8791 38.3677 23.7449 38.4247C23.6097 38.4747 23.4536 38.5406 23.2768 38.6222C23.1 38.7038 22.9137 38.8156 22.7177 38.9575C22.5207 39.0925 22.3311 39.2853 22.1488 39.536C21.9841 39.7625 21.8683 39.9812 21.8015 40.1923C21.7305 40.4003 21.701 40.5983 21.7128 40.7861C21.7275 40.9699 21.783 41.1401 21.8793 41.2967C21.9716 41.4504 22.0987 41.586 22.2604 41.7036C22.4667 41.8536 22.6797 41.9219 22.8995 41.9087C23.1223 41.8913 23.3513 41.8229 23.5866 41.7034C23.8218 41.5839 24.0661 41.4308 24.3193 41.244C24.5726 41.0572 24.8363 40.8688 25.1105 40.6787C25.3807 40.4857 25.6626 40.3105 25.9563 40.1531C26.246 39.9928 26.5489 39.8823 26.865 39.8216C27.1771 39.758 27.5017 39.7621 27.8388 39.8342C28.1789 39.9021 28.5309 40.0684 28.8948 40.333C29.2911 40.6212 29.6132 40.9605 29.861 41.3508C30.1077 41.7342 30.2649 42.1514 30.3326 42.6025C30.3992 43.0465 30.3706 43.511 30.2468 43.9959C30.1189 44.4778 29.8786 44.9615 29.5257 45.4468C29.3229 45.7258 29.0946 45.9802 28.841 46.21C28.5914 46.4427 28.3249 46.6477 28.0415 46.8249C27.7611 46.9981 27.4707 47.1424 27.1704 47.2579C26.87 47.3734 26.5712 47.4528 26.2738 47.4962L25.8397 46.448C25.8125 46.3664 25.8042 46.28 25.8148 46.1889C25.8215 46.0948 25.8512 46.0113 25.9041 45.9385C25.9777 45.8374 26.0995 45.7591 26.2697 45.7036C26.4359 45.6451 26.6283 45.5717 26.847 45.4835C27.0657 45.3952 27.2955 45.2748 27.5362 45.1222C27.7759 44.9627 28.006 44.7312 28.2265 44.4279C28.5646 43.9628 28.7171 43.5235 28.684 43.11C28.6468 42.6935 28.422 42.3353 28.0095 42.0354C27.779 41.8678 27.5483 41.7897 27.3174 41.8011C27.0895 41.8085 26.8579 41.8719 26.6227 41.9914C26.3834 42.108 26.1411 42.2626 25.896 42.4553C25.6508 42.6479 25.3966 42.8402 25.1334 43.0321C24.8703 43.2241 24.5938 43.4002 24.3042 43.5605C24.0145 43.7208 23.7096 43.8298 23.3894 43.8876C23.0693 43.9454 22.7311 43.9344 22.3748 43.8547C22.0175 43.7679 21.6387 43.579 21.2383 43.2879C20.9188 43.0557 20.653 42.7666 20.4409 42.4207C20.2316 42.0707 20.098 41.6892 20.0398 41.276C19.9817 40.8628 20.0112 40.4268 20.1284 39.968C20.2457 39.5093 20.4719 39.0494 20.8071 38.5883C21.1834 38.0707 21.6113 37.6523 22.0906 37.3332C22.5699 37.014 23.0669 36.8066 23.5815 36.711L24.0564 37.6775Z" fill="white"/>
<path d="M37.734 32.1823C37.811 32.1038 37.9097 32.064 38.0299 32.0629L39.2023 32.1C39.2828 32.7958 39.2006 33.4754 38.9556 34.1388C38.714 34.7986 38.278 35.4496 37.6473 36.0917C37.0833 36.6661 36.4772 37.087 35.8291 37.3545C35.1844 37.6185 34.5279 37.7411 33.8595 37.7224C33.1911 37.7037 32.5284 37.5435 31.8716 37.2418C31.2183 36.9366 30.6044 36.502 30.0301 35.9379C29.4486 35.3668 29.0082 34.7521 28.7087 34.0936C28.4058 33.4317 28.2441 32.7613 28.2238 32.0827C28.2071 31.4004 28.3318 30.7311 28.5981 30.0746C28.8609 29.4145 29.2708 28.8009 29.8278 28.2337C30.3814 27.6701 30.9646 27.2617 31.5775 27.0087C32.1939 26.7521 32.8026 26.6175 33.4036 26.605L33.5995 27.7435C33.6143 27.8141 33.6149 27.8883 33.6015 27.9662C33.5916 28.0406 33.5481 28.117 33.471 28.1955C33.4184 28.249 33.3499 28.2903 33.2653 28.3193C33.1771 28.3448 33.0783 28.3705 32.969 28.3962C32.856 28.4185 32.729 28.4479 32.5879 28.4845C32.4468 28.5212 32.2971 28.5773 32.1386 28.653C31.9766 28.7252 31.8043 28.8257 31.6216 28.9547C31.4389 29.0765 31.2476 29.2392 31.048 29.4425C30.7081 29.7885 30.4587 30.1673 30.2998 30.5789C30.1408 30.9834 30.0775 31.4047 30.1097 31.8429C30.1384 32.2775 30.2661 32.7183 30.4929 33.1653C30.7162 33.6088 31.0436 34.0424 31.4753 34.4664C31.9105 34.8938 32.3571 35.2133 32.8151 35.4248C33.2766 35.6328 33.7267 35.7454 34.1653 35.7626C34.6038 35.7798 35.0257 35.7071 35.4308 35.5443C35.8324 35.378 36.1943 35.1308 36.5166 34.8026C36.7093 34.6064 36.872 34.4193 37.0048 34.2413C37.141 34.0598 37.2508 33.8802 37.334 33.7027C37.4208 33.5216 37.4863 33.3371 37.5306 33.1493C37.5748 32.9545 37.6012 32.7456 37.6098 32.5228C37.6127 32.4556 37.6245 32.3936 37.6452 32.3369C37.6623 32.2766 37.6919 32.2251 37.734 32.1823Z" fill="white"/>
<path d="M41.7888 25.0161C42.0932 24.7887 42.3291 24.5531 42.4966 24.3094C42.668 24.0627 42.7765 23.8194 42.8219 23.5795C42.8684 23.3326 42.8588 23.0901 42.7933 22.8519C42.7277 22.6138 42.6126 22.3846 42.448 22.1643C42.1188 21.7237 41.7197 21.4945 41.2508 21.4766C40.7858 21.4558 40.2549 21.6683 39.6581 22.1142L38.6247 22.8863L40.7794 25.7703L41.7888 25.0161ZM49.3491 26.464L47.8891 27.5548C47.6128 27.7613 47.3317 27.8028 47.0459 27.6793L43.141 26.2621C42.9951 26.2088 42.8636 26.1916 42.7466 26.2104C42.6336 26.2262 42.4969 26.2939 42.3367 26.4136L41.6458 26.9298L44.1821 30.3245L42.5658 31.532L36.0748 22.8441L38.7244 20.8645C39.3132 20.4246 39.8643 20.1096 40.3776 19.9195C40.892 19.7225 41.3657 19.6338 41.7986 19.6536C42.2356 19.6704 42.6334 19.7851 42.992 19.9978C43.3476 20.2065 43.6631 20.495 43.9384 20.8635C44.1569 21.1559 44.3193 21.4652 44.4257 21.7914C44.5361 22.1146 44.5885 22.4437 44.5829 22.7787C44.5813 23.1107 44.5202 23.4466 44.3995 23.7864C44.2829 24.1232 44.1068 24.4514 43.8712 24.7709C44.0203 24.7532 44.1703 24.7535 44.3212 24.7718C44.4692 24.786 44.6211 24.8223 44.777 24.8806L49.3491 26.464Z" fill="white"/>
<path d="M58.5165 15.5639C58.8791 16.2714 59.0976 16.9881 59.1719 17.7141C59.2484 18.4334 59.1859 19.1228 58.9845 19.7822C58.7831 20.4417 58.4459 21.0499 57.9729 21.607C57.4977 22.1596 56.8929 22.624 56.1587 23.0003C55.429 23.3743 54.7011 23.5929 53.9749 23.656C53.2465 23.7147 52.5536 23.6344 51.8963 23.4151C51.2433 23.1935 50.645 22.8428 50.1013 22.363C49.5553 21.8787 49.101 21.2828 48.7384 20.5753C48.3758 19.8678 48.1585 19.1533 48.0865 18.4317C48.0121 17.7057 48.0757 17.013 48.2771 16.3535C48.4829 15.6918 48.8235 15.0846 49.2987 14.532C49.7717 13.975 50.3731 13.5095 51.1028 13.1355C51.5923 12.8846 52.0825 12.7064 52.5734 12.6009C53.062 12.4909 53.5401 12.4482 54.0077 12.4726C54.4731 12.4925 54.9245 12.5786 55.3621 12.7308C55.8018 12.8762 56.2153 13.0801 56.6026 13.3423C56.9898 13.6045 57.344 13.923 57.6653 14.2977C57.991 14.6702 58.2748 15.0922 58.5165 15.5639ZM56.681 16.5046C56.4096 15.9751 56.0956 15.5377 55.7388 15.1924C55.3798 14.8427 54.9937 14.5882 54.5807 14.4291C54.1677 14.27 53.7321 14.2095 53.2741 14.2476C52.8205 14.2834 52.3579 14.4222 51.8862 14.6639C51.4145 14.9056 51.0295 15.2013 50.7311 15.5509C50.4372 15.8982 50.232 16.2871 50.1155 16.7176C50.0035 17.1458 49.9846 17.6078 50.0589 18.1035C50.1308 18.5947 50.3025 19.1051 50.5739 19.6346C50.8453 20.1641 51.1605 20.6037 51.5195 20.9535C51.8763 21.2988 52.2612 21.551 52.6742 21.7101C53.0894 21.8625 53.5238 21.9208 53.9774 21.8849C54.4355 21.8468 54.9003 21.7069 55.372 21.4652C55.8436 21.2234 56.2264 20.9289 56.5204 20.5816C56.8188 20.232 57.0251 19.8454 57.1394 19.4216C57.2514 18.9934 57.2715 18.5336 57.1995 18.0424C57.1252 17.5467 56.9524 17.0341 56.681 16.5046Z" fill="white"/>
<path d="M69.7486 15.8551L70.2656 17.4378L64.2272 19.4104L60.8596 9.10151L62.7773 8.47503L65.6279 17.2012L69.7486 15.8551Z" fill="white"/>
<path d="M79.5939 13.9393L79.8975 15.5764L73.6514 16.7345L71.6743 6.07129L73.658 5.70348L75.3316 14.7296L79.5939 13.9393Z" fill="white"/>
<path d="M99.9749 10.2215C99.9264 11.015 99.7495 11.7356 99.4444 12.3831C99.1393 13.0307 98.7325 13.5794 98.2241 14.0292C97.7157 14.479 97.1165 14.8155 96.4266 15.0388C95.7367 15.2621 94.98 15.3485 94.1565 15.2981L90.0317 15.0457L90.6941 4.22099L94.8188 4.47337C95.6423 4.52376 96.3827 4.70431 97.0399 5.01503C97.6975 5.32076 98.2511 5.72784 98.7009 6.23626C99.151 6.73968 99.488 7.33137 99.7119 8.01131C99.9358 8.69126 100.023 9.42798 99.9749 10.2215ZM97.9088 10.0951C97.9451 9.50119 97.8978 8.9648 97.7668 8.4859C97.6411 8.00232 97.4384 7.58918 97.1589 7.24646C96.8846 6.89906 96.5407 6.62505 96.1271 6.42442C95.7186 6.22409 95.2498 6.10775 94.7208 6.07538L92.6173 5.94667L92.151 13.5674L94.2545 13.6961C94.7835 13.7285 95.263 13.6702 95.6929 13.5211C96.1278 13.3724 96.5024 13.1449 96.8167 12.8385C97.1363 12.5274 97.3878 12.1421 97.5712 11.6824C97.7599 11.2181 97.8724 10.689 97.9088 10.0951Z" fill="white"/>
<path d="M114.098 13.4704C113.909 14.2427 113.606 14.9278 113.187 15.5256C112.774 16.1197 112.276 16.6003 111.693 16.9674C111.109 17.3345 110.456 17.574 109.734 17.686C109.013 17.7932 108.252 17.7489 107.45 17.5534C106.654 17.359 105.96 17.0482 105.369 16.621C104.78 16.1889 104.309 15.675 103.955 15.0791C103.606 14.4844 103.383 13.8278 103.285 13.1092C103.189 12.3858 103.235 11.6379 103.423 10.8656C103.612 10.0932 103.915 9.41058 104.332 8.81765C104.751 8.21986 105.252 7.73742 105.836 7.37032C106.424 7.00441 107.079 6.76789 107.8 6.66076C108.522 6.54876 109.282 6.58997 110.078 6.78437C110.613 6.91476 111.1 7.10059 111.54 7.34186C111.982 7.57828 112.371 7.85865 112.709 8.18296C113.048 8.50242 113.333 8.8628 113.565 9.26412C113.802 9.66176 113.982 10.0864 114.103 10.5381C114.224 10.9897 114.284 11.4623 114.282 11.9559C114.285 12.4507 114.223 12.9555 114.098 13.4704ZM112.094 12.9814C112.235 12.4034 112.284 11.8671 112.24 11.3726C112.197 10.8732 112.071 10.4282 111.863 10.0377C111.654 9.64716 111.365 9.31652 110.993 9.04575C110.627 8.77617 110.186 8.57855 109.671 8.4529C109.156 8.32725 108.672 8.29906 108.217 8.36831C107.768 8.43875 107.358 8.59871 106.988 8.84818C106.624 9.09884 106.307 9.43593 106.039 9.85945C105.772 10.2781 105.568 10.7765 105.427 11.3545C105.286 11.9326 105.237 12.4713 105.28 12.9707C105.324 13.4652 105.45 13.9077 105.658 14.2982C105.873 14.6851 106.163 15.0133 106.53 15.2829C106.901 15.5537 107.344 15.7519 107.859 15.8775C108.374 16.0032 108.856 16.0308 109.306 15.9603C109.76 15.8911 110.169 15.7336 110.533 15.4878C110.898 15.2371 111.213 14.9024 111.48 14.4838C111.748 14.0602 111.953 13.5595 112.094 12.9814Z" fill="white"/>
<path d="M133.448 16.1983L125.799 24.5916L124.148 23.8187L125.144 16.103C125.162 15.9124 125.201 15.6877 125.261 15.4289C125.181 15.5294 125.104 15.6231 125.03 15.71C124.956 15.7969 124.884 15.8759 124.812 15.9471L119.502 21.6431L117.845 20.867L119.402 9.62062L120.93 10.3363C121.088 10.4105 121.202 10.5105 121.27 10.6362C121.344 10.7596 121.37 10.8931 121.347 11.0369L120.267 17.6945C120.235 17.8564 120.195 18.0308 120.146 18.2177C120.104 18.4022 120.057 18.5957 120.006 18.7984C120.132 18.6251 120.254 18.4643 120.373 18.3158C120.497 18.1695 120.618 18.0356 120.735 17.914L125.416 12.9421C125.501 12.8549 125.615 12.7927 125.76 12.7555C125.909 12.7203 126.06 12.7388 126.214 12.8109L126.751 13.0622C126.909 13.1364 127.02 13.2353 127.084 13.3589C127.147 13.4826 127.175 13.6172 127.168 13.7627L126.339 20.5381C126.302 20.8634 126.237 21.2274 126.142 21.6302C126.368 21.3001 126.586 21.0071 126.794 20.7512L131.216 15.6585C131.296 15.558 131.41 15.4924 131.557 15.4618C131.708 15.4333 131.861 15.4551 132.015 15.5272L133.448 16.1983Z" fill="white"/>
<path d="M143.678 23.9125L137.276 32.6661L136.44 32.0551C136.311 31.9606 136.217 31.8607 136.158 31.7554C136.106 31.6491 136.076 31.5159 136.069 31.356L135.767 22.1775C135.596 22.4615 135.428 22.7166 135.263 22.9426L131.331 28.3182L129.896 27.2689L136.299 18.5153L137.152 19.1396C137.221 19.1898 137.276 19.2366 137.319 19.2801C137.368 19.3225 137.404 19.3671 137.426 19.4138C137.454 19.4595 137.473 19.5137 137.483 19.5766C137.496 19.6355 137.504 19.7094 137.507 19.7984L137.81 29.0144C137.901 28.8643 137.992 28.7177 138.085 28.5746C138.177 28.4314 138.266 28.3014 138.352 28.1843L142.243 22.8632L143.678 23.9125Z" fill="white"/>
<path d="M148.517 36.555L151.035 39.5137L149.859 40.515L147.341 37.5563L148.517 36.555Z" fill="white"/>
<path d="M163.979 53.399C163.858 53.395 163.76 53.3738 163.683 53.3352C163.612 53.2988 163.554 53.2364 163.507 53.1479C163.458 53.0551 163.438 52.9359 163.446 52.7904C163.46 52.6469 163.47 52.4778 163.475 52.2831C163.479 52.0884 163.461 51.8719 163.42 51.6335C163.385 51.3972 163.296 51.142 163.151 50.8679C163.02 50.6203 162.875 50.42 162.715 50.2671C162.559 50.1117 162.394 49.998 162.221 49.9259C162.049 49.8581 161.872 49.833 161.689 49.8506C161.51 49.8658 161.332 49.9201 161.156 50.0135C160.93 50.1326 160.775 50.2938 160.69 50.497C160.608 50.7046 160.568 50.9403 160.572 51.2042C160.575 51.468 160.605 51.7548 160.662 52.0644C160.718 52.374 160.771 52.6938 160.821 53.0237C160.875 53.3513 160.908 53.6815 160.92 54.0145C160.936 54.3452 160.902 54.6658 160.817 54.9763C160.737 55.2846 160.59 55.5741 160.377 55.8451C160.166 56.1204 159.862 56.3632 159.464 56.5735C159.031 56.8024 158.585 56.9421 158.125 56.9927C157.672 57.0453 157.228 57.0027 156.794 56.8648C156.366 56.7291 155.961 56.4988 155.58 56.1741C155.204 55.847 154.876 55.4183 154.595 54.8878C154.434 54.5827 154.306 54.2658 154.212 53.9369C154.113 53.6103 154.046 53.2808 154.012 52.9483C153.98 52.6202 153.978 52.2959 154.007 51.9755C154.035 51.655 154.096 51.3517 154.188 51.0656L155.32 51.1375C155.405 51.149 155.486 51.1796 155.563 51.2293C155.645 51.2767 155.707 51.3401 155.749 51.4197C155.807 51.5302 155.824 51.6741 155.799 51.8514C155.778 52.0263 155.759 52.2314 155.742 52.4666C155.725 52.7018 155.732 52.9611 155.763 53.2445C155.801 53.5299 155.907 53.8384 156.082 54.17C156.351 54.6784 156.678 55.0088 157.064 55.1612C157.454 55.3112 157.875 55.2671 158.326 55.0289C158.578 54.8957 158.75 54.723 158.841 54.5107C158.935 54.3028 158.98 54.067 158.976 53.8032C158.977 53.537 158.945 53.2514 158.88 52.9464C158.815 52.6415 158.754 52.3286 158.698 52.0078C158.641 51.687 158.605 51.3613 158.588 51.0306C158.572 50.6999 158.608 50.3782 158.698 50.0653C158.787 49.7524 158.946 49.4536 159.174 49.1689C159.409 48.8863 159.746 48.6293 160.183 48.3981C160.533 48.2136 160.909 48.1022 161.313 48.0641C161.72 48.0304 162.121 48.0784 162.518 48.2082C162.914 48.338 163.293 48.5565 163.653 48.8638C164.013 49.1711 164.326 49.5767 164.593 50.0807C164.892 50.6465 165.079 51.2149 165.154 51.7858C165.23 52.3567 165.197 52.8942 165.056 53.3984L163.979 53.399Z" fill="white"/>
<path d="M162.889 68.0989C162.926 68.2027 162.918 68.3087 162.866 68.4171L162.316 69.4534C161.656 69.2192 161.082 68.8461 160.595 68.334C160.109 67.8265 159.716 67.1483 159.417 66.2994C159.15 65.54 159.039 64.8105 159.085 64.1108C159.132 63.4158 159.311 62.7723 159.622 62.1805C159.933 61.5886 160.369 61.0643 160.929 60.6074C161.49 60.1553 162.151 59.7956 162.91 59.5284C163.679 59.2578 164.425 59.1331 165.148 59.1543C165.876 59.1738 166.549 59.3239 167.167 59.6046C167.787 59.89 168.333 60.2968 168.805 60.825C169.282 61.3516 169.652 61.9898 169.916 62.7398C170.178 63.485 170.288 64.1884 170.245 64.8501C170.204 65.5166 170.057 66.1223 169.804 66.6674L168.695 66.3419C168.625 66.324 168.558 66.2919 168.494 66.2456C168.432 66.2039 168.383 66.1312 168.346 66.0274C168.321 65.9567 168.314 65.8769 168.325 65.7882C168.341 65.6978 168.362 65.5978 168.387 65.4883C168.417 65.3771 168.446 65.2501 168.475 65.1073C168.505 64.9645 168.52 64.8053 168.522 64.6298C168.529 64.4525 168.514 64.2535 168.479 64.0327C168.45 63.815 168.388 63.5717 168.294 63.3028C168.133 62.8453 167.902 62.4546 167.603 62.1307C167.31 61.8098 166.959 61.5674 166.552 61.4034C166.149 61.2377 165.697 61.1582 165.196 61.165C164.699 61.1701 164.166 61.2731 163.595 61.4739C163.02 61.6764 162.536 61.9367 162.144 62.2547C161.754 62.5775 161.455 62.9319 161.247 63.3181C161.038 63.7043 160.917 64.1151 160.885 64.5505C160.858 64.9842 160.92 65.418 161.073 65.852C161.164 66.1114 161.26 66.3398 161.362 66.5374C161.465 66.7397 161.578 66.9173 161.7 67.0702C161.825 67.2279 161.961 67.3679 162.111 67.4904C162.266 67.6159 162.442 67.7316 162.638 67.8374C162.697 67.8696 162.748 67.9075 162.79 67.9511C162.836 67.993 162.869 68.0423 162.889 68.0989Z" fill="white"/>
<path d="M167.537 74.8956C167.607 75.269 167.715 75.5846 167.86 75.8423C168.006 76.1048 168.176 76.3094 168.372 76.4558C168.573 76.6063 168.795 76.7045 169.038 76.7505C169.28 76.7965 169.537 76.7941 169.807 76.7434C170.348 76.6419 170.729 76.3846 170.952 75.9714C171.175 75.5631 171.218 74.9929 171.081 74.2607L170.843 72.9928L167.304 73.6572L167.537 74.8956ZM162.907 81.0456L162.571 79.2544C162.507 78.9153 162.594 78.6447 162.831 78.4425L165.823 75.5608C165.935 75.4533 166.008 75.3429 166.043 75.2295C166.079 75.1211 166.078 74.9686 166.041 74.772L165.882 73.9244L161.717 74.7064L161.345 72.7235L172.003 70.7221L172.614 73.9728C172.75 74.6952 172.79 75.3287 172.734 75.8732C172.685 76.4218 172.556 76.8861 172.347 77.2661C172.14 77.651 171.861 77.9576 171.512 78.1859C171.169 78.4133 170.771 78.5694 170.318 78.6543C169.96 78.7217 169.61 78.7313 169.271 78.6832C168.932 78.64 168.613 78.5421 168.315 78.3895C168.018 78.2418 167.743 78.039 167.491 77.7811C167.24 77.5281 167.023 77.2254 166.84 76.8732C166.79 77.0148 166.724 77.1493 166.641 77.2768C166.563 77.4034 166.464 77.5238 166.343 77.6381L162.907 81.0456Z" fill="white"/>
<path d="M168.656 94.0762C167.861 94.0902 167.122 93.9706 166.437 93.7176C165.758 93.4695 165.166 93.1098 164.663 92.6386C164.159 92.1674 163.762 91.5967 163.47 90.9268C163.183 90.2567 163.033 89.5092 163.018 88.6844C163.004 87.8645 163.128 87.1147 163.391 86.435C163.659 85.7551 164.037 85.1684 164.523 84.6748C165.009 84.1862 165.588 83.8035 166.258 83.5267C166.933 83.2498 167.668 83.1044 168.463 83.0904C169.258 83.0765 169.995 83.196 170.675 83.4491C171.359 83.7022 171.953 84.0643 172.457 84.5355C172.96 85.0118 173.355 85.5849 173.642 86.255C173.934 86.925 174.087 87.6699 174.101 88.4898C174.111 89.0397 174.055 89.5582 173.934 90.0454C173.817 90.5326 173.645 90.9807 173.417 91.3897C173.194 91.7987 172.918 92.1661 172.589 92.4919C172.265 92.8227 171.9 93.1041 171.494 93.3363C171.088 93.5685 170.646 93.7462 170.168 93.8696C169.69 93.9981 169.186 94.0669 168.656 94.0762ZM168.62 92.014C169.215 92.0036 169.746 91.9143 170.213 91.746C170.685 91.5777 171.084 91.3432 171.408 91.0424C171.733 90.7417 171.979 90.3773 172.147 89.9493C172.314 89.5263 172.393 89.0498 172.384 88.5199C172.375 87.99 172.279 87.5141 172.097 87.0922C171.914 86.6754 171.655 86.3199 171.32 86.0257C170.985 85.7365 170.579 85.5161 170.101 85.3645C169.628 85.2128 169.094 85.1421 168.499 85.1526C167.905 85.163 167.371 85.2524 166.899 85.4207C166.432 85.589 166.036 85.8234 165.711 86.1242C165.391 86.4298 165.148 86.7942 164.98 87.2172C164.813 87.6452 164.734 88.1242 164.743 88.6541C164.752 89.184 164.848 89.6574 165.03 90.0742C165.213 90.4961 165.469 90.8517 165.799 91.1409C166.134 91.4301 166.538 91.6505 167.011 91.8022C167.489 91.9539 168.025 92.0245 168.62 92.014Z" fill="white"/>
<path d="M163.448 104.032L161.8 103.799L162.688 97.5094L173.426 99.0262L173.144 101.024L164.054 99.74L163.448 104.032Z" fill="white"/>
<path d="M160.832 113.715L159.229 113.267L160.94 107.149L171.384 110.07L170.84 112.013L162 109.54L160.832 113.715Z" fill="white"/>
<path d="M155.194 133.651C154.503 133.258 153.934 132.782 153.487 132.222C153.04 131.663 152.726 131.056 152.546 130.402C152.367 129.747 152.328 129.061 152.432 128.343C152.535 127.626 152.791 126.908 153.199 126.191L155.242 122.599L164.669 127.961L162.625 131.553C162.217 132.27 161.729 132.855 161.161 133.309C160.597 133.764 159.987 134.082 159.333 134.262C158.683 134.444 158.003 134.486 157.294 134.388C156.585 134.29 155.885 134.044 155.194 133.651ZM156.217 131.851C156.735 132.146 157.237 132.339 157.725 132.433C158.214 132.533 158.674 132.533 159.105 132.433C159.538 132.339 159.935 132.151 160.298 131.868C160.657 131.59 160.968 131.22 161.23 130.76L162.272 128.928L155.636 125.153L154.594 126.985C154.332 127.445 154.173 127.902 154.117 128.353C154.059 128.809 154.099 129.246 154.235 129.663C154.374 130.087 154.609 130.482 154.941 130.849C155.275 131.223 155.7 131.557 156.217 131.851Z" fill="white"/>
<path d="M146.057 144.899C145.447 144.39 144.966 143.816 144.613 143.176C144.262 142.544 144.049 141.885 143.977 141.2C143.904 140.514 143.977 139.822 144.194 139.125C144.416 138.43 144.791 137.766 145.319 137.133C145.845 136.503 146.429 136.018 147.073 135.675C147.72 135.337 148.389 135.14 149.08 135.084C149.768 135.033 150.455 135.122 151.144 135.351C151.835 135.583 152.487 135.954 153.097 136.463C153.707 136.972 154.187 137.545 154.535 138.181C154.888 138.82 155.1 139.483 155.172 140.168C155.242 140.858 155.166 141.55 154.944 142.244C154.727 142.942 154.356 143.605 153.83 144.235C153.478 144.657 153.096 145.013 152.686 145.302C152.279 145.594 151.856 145.821 151.416 145.981C150.98 146.145 150.531 146.242 150.068 146.273C149.607 146.311 149.146 146.285 148.688 146.195C148.229 146.105 147.778 145.951 147.336 145.732C146.89 145.516 146.464 145.239 146.057 144.899ZM147.379 143.316C147.836 143.697 148.296 143.977 148.759 144.155C149.226 144.336 149.681 144.42 150.123 144.404C150.566 144.389 150.99 144.275 151.397 144.061C151.8 143.85 152.172 143.542 152.511 143.135C152.851 142.728 153.09 142.305 153.228 141.867C153.362 141.432 153.399 140.994 153.338 140.552C153.274 140.114 153.11 139.682 152.848 139.254C152.59 138.83 152.232 138.428 151.775 138.047C151.319 137.665 150.857 137.384 150.389 137.203C149.926 137.024 149.473 136.943 149.031 136.958C148.589 136.98 148.166 137.096 147.763 137.306C147.356 137.521 146.983 137.831 146.644 138.238C146.304 138.645 146.067 139.066 145.932 139.5C145.794 139.939 145.756 140.375 145.816 140.81C145.88 141.248 146.042 141.679 146.3 142.103C146.562 142.53 146.922 142.934 147.379 143.316Z" fill="white"/>
<path d="M135.086 161.07L130.919 150.506L132.34 149.365L138.829 153.657C138.992 153.757 139.177 153.891 139.382 154.059C139.327 153.943 139.277 153.832 139.232 153.728C139.186 153.623 139.147 153.523 139.115 153.427L136.34 146.152L137.766 145.006L147.178 151.356L145.862 152.413C145.726 152.523 145.586 152.58 145.443 152.586C145.3 152.599 145.168 152.563 145.049 152.479L139.548 148.577C139.417 148.477 139.278 148.364 139.132 148.238C138.984 148.119 138.831 147.992 138.672 147.857C138.772 148.046 138.862 148.227 138.943 148.399C139.02 148.575 139.087 148.742 139.145 148.901L141.547 155.293C141.588 155.407 141.593 155.538 141.563 155.684C141.529 155.833 141.446 155.961 141.313 156.067L140.851 156.439C140.715 156.548 140.577 156.604 140.438 156.607C140.299 156.61 140.166 156.575 140.039 156.505L134.321 152.776C134.045 152.6 133.747 152.381 133.427 152.119C133.624 152.467 133.791 152.791 133.929 153.091L136.554 159.304C136.609 159.42 136.618 159.551 136.58 159.696C136.539 159.845 136.452 159.972 136.32 160.079L135.086 161.07Z" fill="white"/>
<path d="M123.655 166.858L118.616 157.255L119.532 156.774C119.674 156.699 119.805 156.659 119.926 156.652C120.044 156.652 120.177 156.684 120.323 156.748L128.697 160.519C128.517 160.241 128.362 159.978 128.232 159.73L125.137 153.832L126.711 153.006L131.751 162.609L130.814 163.101C130.739 163.14 130.672 163.17 130.615 163.189C130.555 163.214 130.499 163.227 130.448 163.225C130.394 163.231 130.337 163.224 130.276 163.205C130.218 163.191 130.148 163.165 130.067 163.129L121.659 159.342C121.754 159.49 121.845 159.637 121.933 159.783C122.021 159.929 122.098 160.066 122.166 160.194L125.229 166.032L123.655 166.858Z" fill="white"/>
<path d="M110.173 165.634L106.408 166.591L106.027 165.094L109.792 164.137L110.173 165.634Z" fill="white"/>
</svg>
