<svg width="30" height="20" viewBox="0 0 30 20" fill="none" xmlns="http://www.w3.org/2000/svg">
<path d="M28.6627 3.14446C28.5002 2.54126 28.1824 1.99117 27.7412 1.54892C27.3 1.10668 26.7506 0.787707 26.1478 0.623761C23.9125 0.010002 14.9702 1.08428e-05 14.9702 1.08428e-05C14.9702 1.08428e-05 6.02931 -0.00998088 3.79266 0.576659C3.19021 0.748149 2.64196 1.07163 2.20055 1.51604C1.75913 1.96046 1.43937 2.51089 1.27196 3.11448C0.68247 5.34971 0.67676 9.98573 0.67676 9.98573C0.67676 9.98573 0.671051 14.6446 1.25626 16.857C1.58455 18.0802 2.54801 19.0465 3.77267 19.3762C6.03074 19.99 14.9488 20 14.9488 20C14.9488 20 23.8911 20.01 26.1263 19.4248C26.7294 19.2611 27.2793 18.9429 27.7216 18.5015C28.164 18.0602 28.4834 17.511 28.6485 16.9084C29.2394 14.6746 29.2437 10.04 29.2437 10.04C29.2437 10.04 29.2722 5.37968 28.6627 3.14446ZM12.1098 14.2806L12.1169 5.71653L19.5491 10.0057L12.1098 14.2806Z" fill="white"/>
</svg>
